<svg
  width="512"
  height="512"
  fill="none"
  viewBox="0 0 512 512"
  xmlns="http://www.w3.org/2000/svg"
>
  <style>
    path {
      fill: black;
    }

    @media (prefers-color-scheme: dark) {
      path {
        fill: white;
      }
    }
  </style>
  <path d="M56 169.467C56 135.293 83.48 107.467 117.647 107.467C127.713 107.457 137.628 109.908 146.531 114.605C155.434 119.303 163.053 126.105 168.727 134.42L147.24 149.393C140.9 139.7 131.567 133.713 118.88 133.713C98.4467 133.713 83.8333 149.393 83.8333 169.473C83.8333 189.553 97.92 205.753 118.707 205.753C131.567 205.753 140.9 199.753 147.24 189.9L168.727 205.053C163.043 213.345 155.417 220.12 146.513 224.787C137.61 229.454 127.699 231.871 117.647 231.827C83.48 231.82 56 203.987 56 169.467Z" />
  <path d="M178.727 189C178.727 162.933 199.86 146.027 223.287 146.027C246.713 146.027 268 163 268 189C268 214.893 246.667 231.807 223.26 231.807C199.853 231.807 178.727 214.907 178.727 189ZM241.433 189C241.433 177.727 233.327 170.153 223.287 170.153C213.247 170.153 205.147 177.74 205.147 189C205.147 200.26 213.247 207.667 223.287 207.667C233.327 207.667 241.433 200.333 241.433 189Z" />
  <path d="M280.353 203.107H305.02C305.02 207.16 308.013 211.913 315.413 211.913C320.873 211.913 325.453 209.627 325.453 205.747C325.453 203.08 323.513 201.873 317.347 200.467L306.6 197.667C282.467 191.147 281.76 177.413 281.76 170.54C281.76 158.387 295.5 146.06 315.407 146.06C330.907 146.06 349.753 153.28 349.407 173.887H324.74C324.74 168.607 321.04 166.14 315.933 166.14C311.533 166.14 307.833 167.9 307.833 171.42C307.833 174.593 310.647 176.353 314.88 177.42L329.147 181.293C349.753 186.927 351.513 199.96 351.513 205.6C351.513 223.74 332.667 231.847 316.113 231.847C297.793 231.82 280.353 221.78 280.353 203.107Z" />
  <path d="M456 147.98V230.227H430.053V220.893C424.053 228.66 412.933 231.84 404.46 231.84C383.987 231.84 364.573 215.6 364.573 188.947C364.573 162.293 383.987 146.06 404.46 146.06C412.933 146.06 424.053 149.233 430.053 157V148L456 147.98ZM428.993 188.927C428.993 178.34 419.993 170.393 410.113 170.393C399.873 170.393 391.047 178.513 391.047 188.927C391.047 199.34 399.873 207.46 410.113 207.46C420.173 207.46 428.993 199.52 428.993 188.927Z" />
  <path d="M177.287 401.847L169.147 331.093L142.073 387.587H120.433L93.3333 331.273L85.0533 401.847H56L71.3333 277.487H94.9733L131.253 355.28L166.987 277.487H191.173L206.333 401.847H177.287Z" />
  <path d="M306.033 366.793H246C248.467 374.54 255.333 379.12 265.2 379.12C272.953 379.12 280.7 376.127 285.987 371.193L299.333 388.107C291.233 396.913 277.14 401.847 263.227 401.847C237.333 401.847 218.84 384.407 218.84 359.393C218.84 332.62 239.62 316.06 263.227 316.06C286.653 316.06 306.56 332.44 306.56 357.453C306.56 359.747 306.387 362.74 306.033 366.793ZM280.493 351.46C280.32 343.36 273.093 338.073 263.76 338.073C255.833 338.073 248.427 341.6 245.793 351.46H280.493Z" />
  <path d="M401.147 317.073L350.42 439.667H322.587L342.847 389.467L310.433 317.073H339.333L356.42 359.527L373.153 317.073H401.147Z" />
</svg>
